inDegrees=no
num_controls=7
num_derivatives=13
num_iterations=135
num_multipliers=7
num_parameters=0
num_slacks=7
num_states=26
objective=5.597654
objective_accelerations=0.598414
objective_balance=0.124034
objective_effort=0.399683
objective_height=4.455038
objective_ligament=0.020486
solver_duration=1536.940783
status=Solve_Succeeded
success=true
DataType=double
version=3
OpenSimVersion=4.4-2022-07-23-0e9fedc
endheader
time	/jointset/ground_pelvis/pelvis_tilt/value	/jointset/ground_pelvis/pelvis_tx/value	/jointset/ground_pelvis/pelvis_ty/value	/jointset/hip_l/hip_flexion_l/value	/jointset/hip_l/hip_adduction_l/value	/jointset/hip_l/hip_rotation_l/value	/jointset/back/lumbar_extension/value	/jointset/patellofemoral_l/patellar_flexion_l/value	/jointset/knee_l/knee_flexion_l/value	/jointset/knee_l/knee_adduction_l/value	/jointset/knee_l/knee_rotation_l/value	/jointset/ankle_l/ankle_angle_l/value	/jointset/subtalar_l/subtalar_angle_l/value	/jointset/ground_pelvis/pelvis_tilt/speed	/jointset/ground_pelvis/pelvis_tx/speed	/jointset/ground_pelvis/pelvis_ty/speed	/jointset/hip_l/hip_flexion_l/speed	/jointset/hip_l/hip_adduction_l/speed	/jointset/hip_l/hip_rotation_l/speed	/jointset/back/lumbar_extension/speed	/jointset/patellofemoral_l/patellar_flexion_l/speed	/jointset/knee_l/knee_flexion_l/speed	/jointset/knee_l/knee_adduction_l/speed	/jointset/knee_l/knee_rotation_l/speed	/jointset/ankle_l/ankle_angle_l/speed	/jointset/subtalar_l/subtalar_angle_l/speed	/forceset/tau_hip_flexion_l	/forceset/tau_hip_adduction_l	/forceset/tau_hip_rotation_l	/forceset/tau_knee_flexion_l	/forceset/tau_ankle_angle_l	/forceset/tau_subtalar_angle_l	/forceset/tau_lumbar_extension	lambda_cid13_p0	lambda_cid13_p1	lambda_cid13_p2	lambda_cid13_p3	lambda_cid13_p4	lambda_cid13_p5	lambda_cid14_p0	/jointset/ground_pelvis/pelvis_tilt/accel	/jointset/ground_pelvis/pelvis_tx/accel	/jointset/ground_pelvis/pelvis_ty/accel	/jointset/hip_l/hip_flexion_l/accel	/jointset/hip_l/hip_adduction_l/accel	/jointset/hip_l/hip_rotation_l/accel	/jointset/back/lumbar_extension/accel	/jointset/patellofemoral_l/patellar_flexion_l/accel	/jointset/knee_l/knee_flexion_l/accel	/jointset/knee_l/knee_adduction_l/accel	/jointset/knee_l/knee_rotation_l/accel	/jointset/ankle_l/ankle_angle_l/accel	/jointset/subtalar_l/subtalar_angle_l/accel	gamma_cid13_p0	gamma_cid13_p1	gamma_cid13_p2	gamma_cid13_p3	gamma_cid13_p4	gamma_cid13_p5	gamma_cid14_p0
0.5	-0.395687818040965	-0.03033624143277361	0.7773930356975706	1.167764843380745	-0.3076892403926113	-0.03147611168381101	-0.319234178540534	0.718633130555414	0.7186331305553738	-0.1728587141808452	0.1745262090188905	0.1193867084684237	-0.03053909432656865	-0.6080517810779446	-0.1822369118117183	-0.4540334563344674	2.140779604223046	-0.01579557357926586	0.6569909935185021	-0.6330676629615436	1.861514715784181	1.861514715784314	-0.006948029536340665	0.0001210099705566619	0.4408722571172989	0.0506112863757029	-0.2197155578393879	0.03409976231552156	-0.02142029904077476	-0.2020283002033612	0.07161013527904582	0.03943791412330515	0.2038937353372039	-15.23060945812083	-17.67120071826358	6.08154171551144	1.375595494673539	-606.0353645901212	-53.44312332368086	-26.57348390537006	0.4986519342515315	0.5014779875234835	-0.3476790470182555	-1.295774252071285	0.628975925330611	-0.4008856443962007	1.586279118215665	-1.145386058470701	-1.145386058470722	0.03757925919648092	-0.007382233463398271	-0.3316236048756669	0.6204752086743209	-3.932935410214101e-07	-9.678853957374126e-07	1.930978401067867e-06	1.426830481690452e-07	-4.517710390332072e-07	-4.578651681898345e-07	-3.825704489530909e-07
0.51	-0.4017421047409394	-0.03213328074032732	0.7728362992218853	1.189103873709635	-0.3078173722978989	-0.02492595749188851	-0.3254853488458596	0.7371877694005183	0.7371877694005341	-0.1729296613380391	0.1745273227820555	0.1237775742785788	-0.03000383116552122	-0.6027289622780393	-0.177152150867239	-0.4572189402798549	2.126734543283864	-0.00985635171562803	0.6529627135161293	-0.6170898587751859	1.849154454164426	1.849154454164492	-0.007246443811977346	0.0001004642009024209	0.4372294875866287	0.05641517069566849	-0.2270459331747207	0.03485101452856313	-0.02148867975001171	-0.2034234777399062	0.06941157150528017	0.03995611858302213	0.2097069441615743	-16.13844934556175	-17.636267943364	5.960568034453907	1.609484026057767	-610.1599861807081	-53.07146431551104	-25.47548773728112	0.5605453829687616	0.5148239400390638	-0.2898358450814888	-1.502710791385752	0.5723848326132567	-0.4157045359000712	1.615011968023932	-1.320061764026259	-1.320061764036204	-0.0643653524728095	3.178432177562912e-05	-0.3913266242703733	0.5563425153001038	-3.6276482228395e-07	-8.778406564700844e-07	1.800837913095537e-06	1.345629783247982e-07	-4.134842405440027e-07	-3.917395240734231e-07	-3.551845729323227e-07
0.52	-0.4077408735468909	-0.03387890268001033	0.7682505373513894	1.210293685673823	-0.3078869140814059	-0.01841846717153395	-0.3315744449294859	0.7556110625193663	0.7556110625194358	-0.1730037553542926	0.1745281155941387	0.1281298677940056	-0.02941132966694567	-0.5969482022737951	-0.171953438237575	-0.4598385352965432	2.110935931282914	-0.004077549222673105	0.6484582192040635	-0.600652818621711	1.83524557053274	1.83524557053274	-0.007577401348773663	5.681975277735895e-05	0.4331577981716531	0.0620589538813346	-0.2343763085100633	0.03560226674161174	-0.02155706045927629	-0.2048186552764455	0.06721300773151853	0.04047432304274751	0.2155201529859322	-17.04854143595994	-17.60521872571402	5.845101292169018	1.817802992764001	-614.3445917909893	-52.78157614126776	-24.37580756880386	0.5902401751192455	0.5242683245604696	-0.2345012612784163	-1.646484464425155	0.5968920511940566	-0.4961285063347075	1.678126311639027	-1.455110460856856	-1.455110460856822	0.03107060696454871	-0.01200196915765167	-0.4174075817366549	0.5884549818144658	-3.209790723014324e-07	-8.133079010683694e-07	1.617836729277408e-06	1.138070444592069e-07	-3.644047376828254e-07	-3.328916152769038e-07	-3.22113538770759e-07
0.53	-0.4136796731868273	-0.03557205633189983	0.7636414093794084	1.231317153796929	-0.3078992761006794	-0.01195867758278104	-0.3374969673777736	0.7738878783123785	0.7738878783124679	-0.1730806471076221	0.174528505214828	0.1324394523640136	-0.02876296646946132	-0.5907401619812825	-0.1666663285416893	-0.4618905296377643	2.093483514113317	0.001576341291680801	0.6434172349887495	-0.5837928093055805	1.819873672165082	1.819873672165127	-0.007796295667009984	2.501104328331386e-05	0.4286904256358873	0.06758354206092647	-0.2415485231337131	0.03621383324255089	-0.02160073594424372	-0.2062737451736986	0.06500311306155343	0.04081636234040036	0.2211563932385369	-17.96664803079912	-17.49223707635047	5.711978461490213	2.109358387673555	-618.4817844959833	-52.3745274574265	-23.27521161531707	0.6467878307223329	0.5325974130169946	-0.176136826349706	-1.835787633503076	0.5451746573795917	-0.5207288905050269	1.698767501062559	-1.614755961914984	-1.614755961908176	-0.04773264610614304	0.0015028436020997	-0.4717136160820553	0.5298850933275063	-2.87561525851281e-07	-7.383654938890094e-07	1.477210732026877e-06	1.003758120432618e-07	-3.235590198824878e-07	-2.766730187097385e-07	-2.943722772248561e-07
0.54	-0.4195542520489556	-0.03721200586264749	0.7590146438028536	1.252157864290284	-0.3078559917936469	-0.005551826938452104	-0.3432491238810074	0.7920036698342775	0.7920036698343829	-0.173159600443111	0.1745286313815173	0.136702300903347	-0.02806027251872192	-0.5841040467125767	-0.1613126140092033	-0.4633660562112144	2.074384405332672	0.007051716038977259	0.6378704303184212	-0.5665796296109569	1.803040716309638	1.803040716309729	-0.007989717780779797	4.12895168679572e-06	0.4238105920367023	0.07292510453235945	-0.2487207377573709	0.03682539974349626	-0.02164441142928384	-0.207728835070941	0.06279321839159215	0.04115840163806125	0.2267926334911312	-18.88875076821331	-17.38191882063235	5.583122909430498	2.385848067776217	-622.7002346862948	-52.03924330768844	-22.17486607915279	0.6758551703578769	0.5375892918805583	-0.1192077077242215	-1.975822786634921	0.5611888977825867	-0.5972925973374987	1.748760387337607	-1.747321958414002	-1.747321958413965	0.03616504785784728	-0.009816645578214121	-0.4998997944204214	0.5518498401827222	-2.634024173518326e-07	-6.51906025168425e-07	1.383467919914966e-06	9.504850463543588e-08	-2.918230217239304e-07	-2.233634484388797e-07	-2.725277853813862e-07
0.55	-0.4253604495276124	-0.03879814093055162	0.7543760094503669	1.272799653077631	-0.3077587335529144	0.0007970649047025065	-0.3488274521341458	0.8099440672529771	0.809944067253034	-0.173240044579213	0.1745285350466168	0.1409144305869038	-0.02730494655444897	-0.5770694100780512	-0.1559082023741932	-0.4642625442772133	2.053711613702371	0.01236617478331051	0.6318279533479163	-0.5490411726913841	1.784806064024633	1.784806064024678	-0.008094659867066145	-1.862487583020699e-05	0.4185521632943437	0.07810421928275053	-0.2556710425227702	0.0372251597102875	-0.02167304309076561	-0.2093235986234882	0.06077408503731943	0.04136258944635388	0.2322197971019706	-19.74990995228299	-17.22026164588154	5.443636079701257	2.659042694839122	-626.8453418416946	-51.64933866578244	-21.07615596161679	0.7271462097307468	0.5428151075959872	-0.06018375716328203	-2.152301992410629	0.5113759774006347	-0.6199562624038745	1.76311559300171	-1.896390251898784	-1.896390251905663	-0.03320370640699396	0.001937478344550363	-0.548295562928676	0.4955020530852788	-2.395216911797354e-07	-5.699888633333836e-07	1.288340760237706e-06	8.945530742396392e-08	-2.615908141334011e-07	-1.742079529172974e-07	-2.507919453794299e-07
0.5600000000000001	-0.4310943249799754	-0.04033004228044858	0.7497313473369945	1.293226855020438	-0.3076093704018123	0.007083085775054621	-0.3542290503683416	0.8276951474711552	0.8276951474711632	-0.1733214141100804	0.1745282996193898	0.1450720797532798	-0.02649891749054857	-0.569639641454299	-0.1504658704077673	-0.4645716083882372	2.031467036424751	0.01747269811332381	0.6252962357575297	-0.5312336258224333	1.765177276205426	1.765177276205425	-0.008174796734755008	-2.368951602505772e-05	0.4129144886005824	0.08306572445786282	-0.262621347288178	0.03762491967707845	-0.02170167475224313	-0.2109183621760361	0.05875495168304733	0.04156677725464646	0.2376469607128011	-20.61640791117421	-17.06059870956825	5.307813927662184	2.923694273505487	-631.0878851357454	-51.32513302643149	-19.98079554932013	0.75488156820319	0.5451733581637512	-0.001722916729198362	-2.290179916098799	0.519601814918617	-0.695140721313831	1.802578377213182	-2.026149065254646	-2.026149065254525	0.04112609157734011	-0.006278808113824379	-0.5757489847008926	0.5083279251269948	-2.159750238004594e-07	-4.935224697609935e-07	1.191552383482027e-06	8.354304244811677e-08	-2.331631552245051e-07	-1.300373470948467e-07	-2.291864875872899e-07
0.5700000000000001	-0.4367520391070453	-0.04180739190249208	0.7450865274124711	1.313424043659288	-0.307409857989486	0.01330136123483727	-0.3594513097097757	0.8452431907243911	0.8452431907243287	-0.1734031339458307	0.1745280209144117	0.1491715803894185	-0.02564422227290905	-0.561841893763192	-0.1450031097677748	-0.4642934639701612	2.007722083592152	0.02239225064444072	0.6182826375320208	-0.5131883304247173	1.744210184439682	1.744210184439708	-0.008164831862242631	-2.812380265813724e-05	0.4069273727326643	0.08783252360488281	-0.2693381394830928	0.03786452233860835	-0.02170571893175234	-0.2125623389719629	0.0568268096272117	0.04164124368930401	0.242846505089461	-21.44978495150127	-16.8476809155491	5.160398025657143	3.210076215654925	-635.1877231151577	-50.93587459221493	-18.8906578512274	0.8013925064804104	0.5469850917630554	0.057376586481068	-2.453971590839534	0.4723788214280669	-0.7160938798654682	1.809991926938207	-2.165124339519982	-2.165124339516234	-0.01845261304779143	0.002830258991186739	-0.6189333547106319	0.4546748847208668	-1.942663759776254e-07	-4.194313250192158e-07	1.101277737811446e-06	7.93056629527312e-08	-2.079302806481185e-07	-8.925726571661875e-08	-2.085825041625028e-07
